<svg width="62" height="43" version="1.1" xmlns="http://www.w3.org/2000/svg" desc="Created with imagetracer.js version 1.2.6" ><path fill="rgb(255,255,255)" stroke="rgb(255,255,255)" stroke-width="1" opacity="0.35294117647058826" d="M 6.5 5 L 7.5 7 L 6.5 5 Z " /><path fill="rgb(255,255,255)" stroke="rgb(255,255,255)" stroke-width="1" opacity="0.35294117647058826" d="M 13.5 12 L 16.5 16 L 13.5 12 Z " /><path fill="rgb(255,255,255)" stroke="rgb(255,255,255)" stroke-width="1" opacity="0.807843137254902" d="M 2.5 2 L 4.5 5 L 2.5 2 Z " /><path fill="rgb(255,255,255)" stroke="rgb(255,255,255)" stroke-width="1" opacity="0.807843137254902" d="M 50.5 2 L 62 2.5 L 50.5 3 L 50.5 2 Z " /><path fill="rgb(255,255,255)" stroke="rgb(255,255,255)" stroke-width="1" opacity="0.807843137254902" d="M 8.5 7 L 12.5 12 L 8.5 7 Z " /><path fill="rgb(255,255,255)" stroke="rgb(255,255,255)" stroke-width="1" opacity="0.807843137254902" d="M 16.5 16 L 17.5 18 L 16.5 16 Z " /><path fill="rgb(255,255,255)" stroke="rgb(255,255,255)" stroke-width="1" opacity="0.807843137254902" d="M 19.5 20 L 20.5 22 L 19.5 20 Z " /><path fill="rgb(0,0,0)" stroke="rgb(0,0,0)" stroke-width="1" opacity="0" d="M 1.5 0 L 61.5 0 L 62 2 L 49.5 2 L 49 2.5 L 49 43 L 31 43 L 26 28.5 L 9.5 7 Q 2.8 4.2 1.5 0 Z " /><path fill="rgb(255,255,255)" stroke="rgb(255,255,255)" stroke-width="1" opacity="0.0784313725490196" d="M 9.5 7 L 12.5 11 L 9.5 7 Z " /><path fill="rgb(255,255,255)" stroke="rgb(255,255,255)" stroke-width="1" opacity="1" d="M 0.5 1 L 16 15.5 Q 25.8 26.9 30 43 L 0 43 L 0.5 1 Z " /><path fill="rgb(255,255,255)" stroke="rgb(255,255,255)" stroke-width="1" opacity="1" d="M 50 3 L 61.5 3 L 62 3.5 L 62 43 L 50.5 43 L 50 42.5 L 50 3 Z " /><path fill="rgb(255,255,255)" stroke="rgb(255,255,255)" stroke-width="1" opacity="0.09019607843137255" d="M 4.5 3 L 5.5 5 L 4.5 3 Z " /><path fill="rgb(255,255,255)" stroke="rgb(255,255,255)" stroke-width="1" opacity="0.09019607843137255" d="M 49.5 3 L 50 42.5 L 49 42.5 L 49.5 3 Z " /></svg>